<?xml version="1.0" encoding="UTF-8"?>
<svg id="katman_1" xmlns="http://www.w3.org/2000/svg" version="1.1" viewBox="0 0 512 512">
  <!-- Generator: Adobe Illustrator 29.3.1, SVG Export Plug-In . SVG Version: 2.1.0 Build 151)  -->
  <defs>
    <style>
      .st0 {
        fill: #06b1ad;
      }

      .st1 {
        fill: #0b466f;
      }

      .st2 {
        fill: #09466f;
      }
    </style>
  </defs>
  <path class="st1" d="M269.9,480.6h-1.7c-1.7,0-3.5,0-5.2-1.7,4.3-2.6,9.5-5.2,13-8.6,9.5-6,17.3-14.7,25-23.3,8.6-10.4,14.7-20.7,20.7-32.8,6-12.1,12.1-28.5,14.7-44,1.7-8.6,2.6-17.3,3.5-26.8.9-6,2.6-12.1,3.5-17.3,0-4.3,1.7-7.8,1.7-12.1,0-7.8.9-16.4,0-24.2,0-8.6-1.7-17.3-3.5-26.8-1.7-12.1-4.3-25-6.9-37.1-1.7-8.6-3.5-17.3-4.3-25.9,0-5.2-.9-10.4-1.7-15.5v-15.5c0-14.7,1.7-29.4,7.8-44,2.6-6.9,6-13.8,11.2-19,2.6-2.6,4.3-5.2,6.9-7.8h0c-.9,2.6-2.6,5.2-2.6,8.6-1.7,7.8-3.5,14.7-5.2,22.5-2.6,15.5,0,32,4.3,46.6,6.9,23.3,15.5,45.8,23.3,69.1,4.3,13.8,7.8,27.6,10.4,41.5,0,6.9,1.7,13.8,2.6,20.7,0,7.8,1.7,15.5,0,22.5,0,19-2.6,38-8.6,57-3.5,10.4-7.8,19.9-12.1,29.4-5.2,10.4-11.2,19.9-19,29.4-6.9,8.6-14.7,15.5-23.3,21.6-9.5,6-19.9,10.4-30.2,13h-24.2v1.7-.9Z"/>
  <path class="st0" d="M256.1,31.5c1.7,6,2.6,12.1,4.3,18.1,3.5,12.1,7.8,23.3,14.7,33.7,3.5,6,8.6,11.2,15.5,13.8,2.6.9,4.3,1.7,6.9,1.7-3.5,0-11.2-1.7-16.4-4.3-9.5-6-15.5-14.7-21.6-24.2,0,0,0-1.7-.9-2.6,0,0-.9-1.7-1.7-1.7-3.5,5.2-6.9,10.4-10.4,15.5-6.9,8.6-15.5,15.5-25.9,18.1h-5.2c13-1.7,19-10.4,25-19.9,7.8-13.8,12.1-28.5,15.5-44v-2.6h.9v-1.7h-.9Z"/>
  <path class="st0" d="M221.5,326c1.7,7.8,2.6,16.4,5.2,23.3,2.6,9.5,6,19,11.2,27.6,3.5,7.8,9.5,14.7,14.7,22.5-3.5,3.5-7.8,5.2-13,6.9-13.8,3.5-25,0-34.5-10.4-9.5-9.5-16.4-20.7-20.7-33.7-2.6-6-3.5-12.1-4.3-19-.9-7.8-1.7-16.4-1.7-24.2v-2.6c0-13.8,2.6-27.6,5.2-40.6,3.5-16.4,8.6-32,13.8-47.5,5.2-15.5,10.4-30.2,15.5-44.9,3.5-10.4,6-21.6,6.9-32.8,0-6,.9-12.1,0-18.1,0-10.4-3.5-20.7-7.8-31.1,0-.9,0-1.7-.9-3.5h0c2.6,3.5,6,6,8.6,9.5,8.6,11.2,13,24.2,15.5,38,1.7,10.4,2.6,20.7,1.7,32-.9,14.7-3.5,28.5-5.2,43.2-1.7,13-5.2,25.9-7.8,38.9-1.7,8.6-2.6,17.3-3.5,25.9,0,5.2-.9,10.4,0,15.5v25h.9Z"/>
  <path class="st0" d="M267.3,392.5c3.5-4.3,6-8.6,8.6-13,7.8-13.8,13-28.5,15.5-44,1.7-9.5,2.6-19,3.5-29.4,0-5.2.9-11.2,0-16.4-.9-11.2-2.6-21.6-4.3-32.8-1.7-11.2-4.3-22.5-6.9-33.7-1.7-8.6-3.5-18.1-4.3-26.8,0-6-.9-11.2-1.7-17.3v-16.4c0-16.4,2.6-32.8,11.2-47.5,3.5-6.9,8.6-12.1,13.8-18.1h1.7c-1.7,5.2-3.5,9.5-5.2,13.8-3.5,12.1-5.2,24.2-4.3,36.3.9,16.4,6,32.8,11.2,48.4,6,17.3,12.1,33.7,17.3,51,4.3,13,6.9,26.8,9.5,40.6,1.7,9.5,1.7,19,2.6,27.6v13c0,13-2.6,24.2-7.8,36.3-3.5,9.5-8.6,18.1-14.7,25.9-6.9,8.6-15.5,14.7-27.6,16.4-10.4,0-19-1.7-26.8-7.8,4.3-1.7,6.9-4.3,8.6-6h0Z"/>
  <path class="st1" d="M326,388.2c-3.5,11.2-7.8,21.6-13.8,32-5.2,7.8-9.5,16.4-15.5,23.3-5.2,6-12.1,12.1-18.1,17.3-6,6-13,9.5-20.7,13h-5.2c-13-6-23.3-13.8-32.8-24.2-12.1-13-21.6-27.6-27.6-44-3.5-9.5-6.9-19.9-10.4-30.2v-3.5c1.7,3.5,3.5,6.9,6,10.4,6.9,10.4,13.8,19.9,25.9,25,12.1,5.2,23.3,5.2,34.5-1.7,2.6-1.7,5.2-3.5,7.8-4.3,6,2.6,11.2,6,17.3,7.8,7.8,2.6,16.4,1.7,24.2-1.7,6.9-2.6,13.8-7.8,19-13.8h.9c2.6,0,3.5,0,5.2-2.6.9-1.7,0-6,3.5-5.2,0,0,0,2.6,0,2.6Z"/>
  <path class="st1" d="M324.3,394.3h-4.3c-1.7,2.6-2.6,1.7-5.2,1.7,6-6.9,10.4-19.9,14.7-26.8v6c-1.7,5.2-2.6,13.8-4.3,17.3v2.6l-.9-.9Z"/>
  <path class="st2" d="M220.6,480.6h-2.6c-11.2-2.6-20.7-6.9-30.2-13-8.6-6-16.4-13.8-23.3-21.6-7.8-8.6-13.8-18.1-19-29.4-4.3-9.5-8.6-19-12.1-29.4-6-18.1-8.6-37.1-8.6-57v-22.5c0-6.9,1.7-13.8,2.6-20.7,1.7-13.8,6-27.6,10.4-41.5,7.8-23.3,15.5-45.8,23.3-69.1,5.2-15.5,6.9-31.1,4.3-46.6-.9-7.8-3.5-14.7-5.2-22.5,0-2.6-1.7-5.2-2.6-8.6h0c2.6,2.6,4.3,5.2,6.9,7.8,5.2,5.2,8.6,12.1,11.2,19,6,13.8,7.8,28.5,7.8,44v15.5c0,5.2,0,10.4-1.7,15.5-.9,8.6-2.6,17.3-4.3,25.9-2.6,12.1-5.2,25-6.9,37.1-1.7,8.6-3.5,17.3-3.5,26.8v24.2c0,4.3.9,8.6,1.7,12.1.9,6,2.6,12.1,3.5,17.3,1.7,8.6,2.6,17.3,3.5,26.8,2.6,15.5,7.8,29.4,14.7,44,5.2,12.1,12.1,22.5,20.7,32.8,6.9,8.6,15.5,16.4,25,23.3,4.3,2.6,8.6,5.2,13,8.6-1.7,0-3.5,0-5.2,1.7h-23.3v-1.7.9Z"/>
</svg>